<?xml version="1.0" encoding="UTF-8"?>
<svg xmlns="http://www.w3.org/2000/svg" viewBox="0 0 1024 1024" width="1024" height="1024" role="img" aria-label="Turned away instruction illustration">
  <path d="M372.00 533.50 Q372 526 374.00 517.00 Q376 508 375.00 465.50 Q374 423 378.50 398.50 Q383 374 383.50 372.00 Q384 370 385.50 369.00 Q387 368 394.50 371.00 Q402 374 412.50 375.50 Q423 377 424.00 378.00 Q425 379 422.50 389.00 Q420 399 417.50 423.00 Q415 447 410.00 468.50 Q405 490 405.00 497.00 Q405 504 408.00 509.50 Q411 515 412.50 521.00 Q414 527 414.00 540.00 Q414 553 413.00 554.00 Q412 555 409.50 555.00 Q407 555 405.00 553.50 Q403 552 402.00 544.00 Q401 536 400.50 535.00 Q400 534 398.50 534.50 Q397 535 397.00 544.00 Q397 553 402.50 561.50 Q408 570 408.00 573.50 Q408 577 404.50 578.50 Q401 580 397.00 578.00 Q393 576 387.50 571.00 Q382 566 378.50 560.00 Q375 554 373.50 547.50 Q372 541 372.00 533.50 Z M381.00 354.00 Q380 351 384.00 334.50 Q388 318 392.00 306.50 Q396 295 402.00 284.50 Q408 274 416.00 266.50 Q424 259 448.50 248.50 Q473 238 475.50 238.00 Q478 238 484.50 242.00 Q491 246 499.00 247.50 Q507 249 516.00 248.50 Q525 248 531.50 246.00 Q538 244 542.00 241.00 Q546 238 549.00 238.00 Q552 238 575.00 248.00 Q598 258 608.00 267.50 Q618 277 624.50 290.50 Q631 304 637.00 329.50 Q643 355 635.00 359.00 Q627 363 612.50 366.00 Q598 369 597.00 368.50 Q596 368 594.00 355.00 Q592 342 591.50 341.00 Q591 340 590.00 340.50 Q589 341 588.00 377.50 Q587 414 590.50 445.00 Q594 476 594.00 479.00 Q594 482 593.00 483.00 Q592 484 579.50 487.00 Q567 490 554.00 491.50 Q541 493 511.00 493.00 Q481 493 463.50 490.50 Q446 488 438.00 485.00 Q430 482 433.00 453.50 Q436 425 436.00 392.00 Q436 359 435.00 349.50 Q434 340 433.00 340.50 Q432 341 429.00 355.00 Q426 369 408.50 365.00 Q391 361 386.50 359.00 Q382 357 381.00 354.00 Z M392.00 889.50 Q392 885 393.50 880.50 Q395 876 398.00 873.00 Q401 870 411.00 866.50 Q421 863 426.50 857.00 Q432 851 434.00 851.00 Q436 851 436.00 843.00 Q436 835 433.50 834.00 Q431 833 429.00 830.50 Q427 828 425.50 822.00 Q424 816 422.50 770.50 Q421 725 421.50 654.00 Q422 583 423.50 558.00 Q425 533 427.50 513.50 Q430 494 432.00 493.50 Q434 493 445.00 496.00 Q456 499 469.00 500.50 Q482 502 512.00 502.00 Q542 502 555.00 500.50 Q568 499 580.50 496.00 Q593 493 596.00 515.50 Q599 538 600.50 567.00 Q602 596 602.00 675.50 Q602 755 600.50 787.00 Q599 819 597.00 824.50 Q595 830 591.00 833.00 Q587 836 587.00 843.00 Q587 850 590.00 851.00 Q593 852 598.00 857.50 Q603 863 610.50 865.00 Q618 867 623.00 871.00 Q628 875 630.00 882.00 Q632 889 631.00 894.00 Q630 899 623.00 904.00 Q616 909 601.50 914.50 Q587 920 581.50 921.00 Q576 922 563.50 921.00 Q551 920 548.00 918.50 Q545 917 543.00 914.00 Q541 911 543.00 888.00 Q545 865 547.00 860.50 Q549 856 549.00 848.50 Q549 841 548.50 838.00 Q548 835 545.50 834.00 Q543 833 541.00 829.50 Q539 826 538.00 820.50 Q537 815 525.00 691.00 Q513 567 512.00 567.00 Q511 567 510.00 569.00 Q509 571 508.00 580.00 Q507 589 496.50 704.50 Q486 820 484.00 825.50 Q482 831 478.50 833.50 Q475 836 475.00 846.50 Q475 857 476.50 859.00 Q478 861 479.00 868.50 Q480 876 481.00 894.00 Q482 912 479.50 915.00 Q477 918 472.50 919.50 Q468 921 458.00 921.50 Q448 922 442.50 921.00 Q437 920 421.50 914.00 Q406 908 401.00 905.00 Q396 902 394.00 898.00 Q392 894 392.00 889.50 Z M423.50 895.00 Q401 887 402.00 891.50 Q403 896 421.50 903.50 Q440 911 452.00 911.50 Q464 912 468.50 910.50 Q473 909 473.00 905.00 Q473 901 459.50 902.00 Q446 903 423.50 895.00 Z M456.00 182.50 Q454 175 455.00 171.50 Q456 168 458.00 166.50 Q460 165 459.50 152.00 Q459 139 460.50 135.50 Q462 132 463.50 131.00 Q465 130 463.00 127.00 Q461 124 461.50 121.00 Q462 118 466.00 118.50 Q470 119 473.50 118.00 Q477 117 482.00 113.50 Q487 110 495.00 107.00 Q503 104 515.50 103.50 Q528 103 538.00 107.00 Q548 111 553.00 115.50 Q558 120 560.50 124.50 Q563 129 564.00 132.00 Q565 135 565.00 146.00 Q565 157 564.00 161.00 Q563 165 565.50 166.50 Q568 168 568.50 175.00 Q569 182 566.00 188.00 Q563 194 559.00 196.00 Q555 198 553.50 203.00 Q552 208 548.50 212.00 Q545 216 545.00 225.00 Q545 234 544.00 234.50 Q543 235 541.00 234.50 Q539 234 538.50 228.00 Q538 222 530.00 225.50 Q522 229 512.00 229.00 Q502 229 494.00 225.50 Q486 222 485.50 228.00 Q485 234 482.50 234.00 Q480 234 479.50 225.00 Q479 216 476.00 213.00 Q473 210 471.00 204.00 Q469 198 466.00 197.00 Q463 196 460.50 193.00 Q458 190 456.00 182.50 Z M564.50 902.00 Q550 901 550.00 904.50 Q550 908 551.00 909.00 Q552 910 565.00 911.00 Q578 912 598.00 905.00 Q618 898 620.00 896.00 Q622 894 622.00 890.50 Q622 887 600.50 895.00 Q579 903 564.50 902.00 Z M601.50 390.50 Q599 379 600.00 378.00 Q601 377 605.00 377.00 Q609 377 623.50 373.00 Q638 369 643.50 394.50 Q649 420 649.50 440.00 Q650 460 649.00 485.50 Q648 511 649.00 513.00 Q650 515 651.00 527.00 Q652 539 651.00 544.50 Q650 550 647.00 556.50 Q644 563 640.00 567.50 Q636 572 629.50 576.00 Q623 580 619.50 579.00 Q616 578 615.50 574.50 Q615 571 620.50 563.00 Q626 555 627.00 550.50 Q628 546 627.50 541.00 Q627 536 626.50 535.00 Q626 534 624.50 534.50 Q623 535 622.00 543.00 Q621 551 619.00 553.00 Q617 555 614.50 555.00 Q612 555 610.50 553.00 Q609 551 609.50 537.50 Q610 524 614.50 513.00 Q619 502 619.00 499.00 Q619 496 612.50 464.50 Q606 433 605.00 417.50 Q604 402 601.50 390.50 Z" fill="#000000" fill-rule="evenodd" clip-rule="evenodd"/>
</svg>
